<?xml version="1.0" encoding="UTF-8"?>
<svg id="Capa_2" data-name="Capa 2" xmlns="http://www.w3.org/2000/svg" viewBox="0 0 216.82 67.81">
  <defs>
    <style>
      .cls-1 {
        fill: #fba322;
      }
    </style>
  </defs>
  <g id="Capa_1-2" data-name="Capa 1">
    <g>
      <g>
        <path d="M105.29,40.92c.05,2.72,2.44,3.82,5.02,3.82,1.89,0,4.29-.7,4.29-2.9,0-1.89-2.72-2.55-7.42-3.51-3.78-.79-7.56-2.07-7.56-6.06,0-5.8,5.25-7.29,10.37-7.29s10,1.67,10.51,7.25h-6.22c-.18-2.42-2.12-3.07-4.47-3.07-1.47,0-3.64.26-3.64,2.11,0,2.24,3.69,2.55,7.42,3.38,3.82.84,7.56,2.15,7.56,6.37,0,5.98-5.44,7.91-10.87,7.91s-10.92-1.98-11.2-7.99h6.22Z"/>
        <path d="M131.42,25.59h4.79v4.17h-4.79v11.25c0,2.11.55,2.64,2.76,2.64.69,0,1.33-.04,2.03-.18v4.88c-1.1.18-2.53.22-3.82.22-4.01,0-7.51-.88-7.51-5.4v-13.4h-3.96v-4.17h3.96v-6.81h6.55v6.81Z"/>
        <path d="M138.43,25.59h6.22v4.22h.09c1.2-2.86,4.42-4.83,7.61-4.83.46,0,1.01.09,1.43.22v5.8c-.6-.13-1.57-.22-2.35-.22-4.79,0-6.45,3.3-6.45,7.29v10.24h-6.54v-22.71Z"/>
        <path d="M159.91,38.46c.19,3.95,2.21,5.76,5.85,5.76,2.63,0,4.75-1.54,5.16-2.94h5.76c-1.84,5.36-5.76,7.64-11.15,7.64-7.51,0-12.17-4.92-12.17-11.95s4.93-12,12.17-12c8.11,0,12.03,6.5,11.57,13.49h-17.19ZM170.55,34.51c-.6-3.16-2.03-4.83-5.21-4.83-4.15,0-5.35,3.07-5.44,4.83h10.65Z"/>
        <path d="M178.85,32.58c.37-5.84,5.85-7.6,11.2-7.6,4.75,0,10.46,1.01,10.46,6.46v11.82c0,2.06.23,4.13.83,5.05h-6.64c-.23-.7-.41-1.45-.46-2.2-2.07,2.06-5.12,2.81-8.02,2.81-4.52,0-8.11-2.15-8.11-6.81,0-5.14,4.05-6.37,8.11-6.9,4.01-.57,7.74-.44,7.74-2.99,0-2.68-1.94-3.07-4.24-3.07-2.49,0-4.1.97-4.33,3.43h-6.54ZM193.97,37.19c-1.11.92-3.41.97-5.44,1.32-2.03.4-3.87,1.05-3.87,3.34s1.89,2.9,4.01,2.9c5.12,0,5.3-3.87,5.3-5.23v-2.33Z"/>
        <path d="M212.03,25.59h4.79v4.17h-4.79v11.25c0,2.11.56,2.64,2.77,2.64.69,0,1.34-.04,2.03-.18v4.88c-1.11.18-2.54.22-3.82.22-4.01,0-7.52-.88-7.52-5.4v-13.4h-3.96v-4.17h3.96v-6.81h6.54v6.81Z"/>
      </g>
      <g>
        <path d="M19.91,52.31c0,6.73,2.28,12.38,9.35,12.38h43.15c7.07,0,9.35-5.4,9.35-12.4,0-.17-.1-.52-.5-.52H20.36c-.45,0-.45.36-.45.54Z"/>
        <path d="M50.84,0c-16.66,0-30.23,8.07-30.91,18.19-.02.26.04.78.83.78h60.26c.49,0,.74-.48.72-.71-.61-10.15-14.21-18.26-30.91-18.26Z"/>
        <path d="M81.74,30.81s-.02-.08-.02-.12c-.02-.07-.03-.15-.05-.22-.01-.04-.03-.09-.05-.13-.02-.06-.05-.12-.08-.19-.02-.05-.04-.09-.07-.14-.03-.06-.07-.11-.1-.16-.03-.04-.06-.09-.09-.13-.04-.05-.08-.1-.12-.15-.06-.07-.13-.14-.2-.21-.05-.04-.09-.09-.14-.13-.05-.04-.1-.08-.15-.11-.03-.02-.07-.05-.1-.07-.02-.01-.04-.03-.06-.04-.02-.01-.04-.03-.06-.04-2.78-1.8-14.3-3.17-28.29-3.25-.13,0-.25,0-.38,0-.3,0-.6,0-.9,0h-.04c-.3,0-.6,0-.9,0-.12,0-.25,0-.38,0-13.99.08-25.51,1.44-28.29,3.25-.02.01-.04.02-.06.04-.02.01-.04.03-.06.04-.03.02-.06.05-.1.07-.05.04-.1.07-.15.11-.05.04-.1.09-.14.13-.07.07-.13.14-.2.21-.04.05-.09.1-.13.15-.03.04-.06.09-.09.13-.04.05-.07.11-.1.16-.02.04-.05.09-.07.14-.03.06-.06.12-.08.19-.02.04-.03.09-.05.13-.02.07-.04.15-.05.22,0,.04-.02.08-.02.12-.02.11-.03.23-.03.35v8.43c0,.12.01.24.03.35,0,.04.02.08.02.11.02.08.03.15.05.22.01.05.03.09.05.13.02.06.05.12.08.18.02.05.04.09.07.14.03.06.07.11.1.16.03.04.05.09.09.13.04.05.08.1.13.15.06.07.13.14.2.21.05.04.09.09.14.13.05.04.1.07.15.11.03.02.07.05.1.07.02.01.04.03.06.04.02.01.04.03.06.04,2.78,1.8,14.3,3.17,28.29,3.25h.38c.3,0,.6,0,.9,0h.04c.31,0,.61,0,.91,0h.38c13.99-.08,25.51-1.44,28.29-3.25.02-.01.04-.03.06-.04.02-.01.04-.03.06-.04.03-.02.07-.05.1-.07.05-.04.1-.07.15-.11.05-.04.09-.09.14-.13.07-.07.14-.14.2-.21.04-.05.09-.1.12-.15.03-.04.06-.09.09-.13.03-.06.07-.11.1-.16.02-.05.04-.09.07-.14.03-.06.05-.12.08-.18.02-.04.03-.09.05-.13.02-.07.04-.14.05-.22,0-.04.02-.07.02-.11.02-.11.03-.23.03-.35v-8.43c0-.12-.01-.24-.03-.35Z"/>
        <path class="cls-1" d="M13.19,58.23c0-3.6-2.96-6.52-6.6-6.52s-6.6,2.92-6.6,6.52,2.95,6.53,6.6,6.53,6.6-2.92,6.6-6.53Z"/>
      </g>
      <path d="M99.64,53.1h1.82v4.23h.03c.5-.8,1.54-1.3,2.46-1.3,2.61,0,3.88,1.99,3.88,4.4,0,2.23-1.12,4.32-3.57,4.32-1.12,0-2.32-.27-2.87-1.36h-.03v1.14h-1.73v-11.43ZM103.72,57.47c-1.54,0-2.32,1.17-2.32,2.93,0,1.67.85,2.91,2.32,2.91,1.66,0,2.29-1.47,2.29-2.91s-.79-2.93-2.29-2.93Z"/>
      <path d="M116.11,64.53h-1.79v-1.15h-.03c-.45.83-1.44,1.38-2.35,1.38-2.16,0-3.09-1.09-3.09-3.25v-5.25h1.82v5.08c0,1.46.59,1.98,1.59,1.98,1.52,0,2.03-.98,2.03-2.26v-4.8h1.82v8.28Z"/>
      <path d="M117.71,56.25h1.71v1.6h.03c.21-.88,1.3-1.83,2.42-1.83.42,0,.53.03.69.05v1.76c-.26-.03-.53-.08-.79-.08-1.25,0-2.24,1.01-2.24,2.83v3.94h-1.83v-8.28Z"/>
      <path d="M130.68,64.1c0,2.48-1.46,3.72-4.07,3.72-1.66,0-3.54-.64-3.7-2.58h1.82c.23,1.04,1.06,1.22,1.99,1.22,1.47,0,2.13-.75,2.13-2.11v-1.26h-.03c-.51.91-1.46,1.46-2.48,1.46-2.62,0-3.71-1.99-3.71-4.35,0-2.23,1.39-4.15,3.75-4.15,1.04,0,1.98.43,2.45,1.36h.03v-1.14h1.82v7.84ZM128.86,60.21c0-1.42-.64-2.74-2.23-2.74s-2.18,1.5-2.18,2.88.65,2.74,2.18,2.74c1.62,0,2.23-1.47,2.23-2.88Z"/>
      <path d="M133.43,60.86c0,1.3.7,2.45,2.23,2.45,1.06,0,1.7-.47,2.02-1.38h1.73c-.4,1.81-1.94,2.82-3.75,2.82-2.59,0-4.05-1.81-4.05-4.35,0-2.35,1.54-4.37,4-4.37,2.61,0,4.21,2.35,3.91,4.83h-6.08ZM137.69,59.66c-.06-1.15-.85-2.19-2.08-2.19s-2.13.96-2.18,2.19h4.26Z"/>
      <path d="M140.38,56.25h1.71v1.6h.03c.21-.88,1.29-1.83,2.42-1.83.42,0,.53.03.69.05v1.76c-.26-.03-.53-.08-.78-.08-1.25,0-2.24,1.01-2.24,2.83v3.94h-1.82v-8.28Z"/>
    </g>
  </g>
</svg>